<?xml version="1.0" encoding="UTF-8" standalone="no"?>
<svg
   width="251.60747mm"
   height="400mm"
   viewBox="0 0 251.60746 399.99999"
   version="1.1"
   preserveAspectRatio="xMidYMid"
   id="svg1"
   sodipodi:docname="norrie_samantha_heavy_hex.svg"
   inkscape:version="1.3.2 (091e20e, 2023-11-25)"
   xmlns:inkscape="http://www.inkscape.org/namespaces/inkscape"
   xmlns:sodipodi="http://sodipodi.sourceforge.net/DTD/sodipodi-0.dtd"
   xmlns="http://www.w3.org/2000/svg"
   xmlns:svg="http://www.w3.org/2000/svg">
  <defs
     id="defs1" />
  <sodipodi:namedview
     id="namedview1"
     pagecolor="#ffffff"
     bordercolor="#000000"
     borderopacity="0.25"
     inkscape:showpageshadow="2"
     inkscape:pageopacity="0.0"
     inkscape:pagecheckerboard="0"
     inkscape:deskcolor="#d1d1d1"
     inkscape:document-units="mm"
     inkscape:zoom="1.10195"
     inkscape:cx="312.17388"
     inkscape:cy="259.99365"
     inkscape:window-width="1472"
     inkscape:window-height="892"
     inkscape:window-x="186"
     inkscape:window-y="1144"
     inkscape:window-maximized="0"
     inkscape:current-layer="svgGroup" />
  <g
     id="svgGroup"
     stroke-linecap="round"
     fill-rule="evenodd"
     font-size="12px"
     stroke="#000"
     stroke-width="0.25mm"
     fill="none"
     style="fill:none;stroke:#000000;stroke-width:0.25mm"
     transform="translate(0.05773602,0.05)">
    <path
       d="m 5.196,172.6 v 17.5 H 0 v 15 h 5.196 v 15 2.5 h 20.097 v 3 h 15 v -3 h 15 10.294 v -17.5 h -5.196 v -15 h 5.196 v -15 -2.5 H 40.293 v -3 h -15 v 3 h -15 z"
       id="side1_outsideCutPath"
       stroke="#FF0000"
       stroke-width="0.1"
       style="stroke:#ff0000;stroke-width:0.1"
       vector-effect="non-scaling-stroke" />
    <path
       d="m 73.783,172.6 v 17.5 h -5.196 v 15 h 5.196 v 15 2.5 H 93.88 v 3 h 15 v -3 h 15 10.294 v -17.5 h -5.196 v -15 h 5.196 v -15 -2.5 H 108.88 v -3 h -15 v 3 h -15 z"
       id="side3_outsideCutPath"
       stroke="#FF0000"
       stroke-width="0.1"
       style="stroke:#ff0000;stroke-width:0.1"
       vector-effect="non-scaling-stroke" />
    <path
       d="m 142.37,172.6 v 17.5 h -5.196 v 15 h 5.196 v 15 2.5 h 20.097 v 3 h 15 v -3 h 15 10.294 v -17.5 h -5.196 v -15 h 5.196 v -15 -2.5 h -25.294 v -3 h -15 v 3 h -15 z"
       id="side5_outsideCutPath"
       stroke="#FF0000"
       stroke-width="0.1"
       style="stroke:#ff0000;stroke-width:0.1"
       vector-effect="non-scaling-stroke" />
    <path
       d="m 5.196,113.6 v 17.5 H 0 v 15 h 5.196 v 15 2.5 h 20.097 v 3 h 15 v -3 h 15 10.294 v -17.5 h -5.196 v -15 h 5.196 v -15 -2.5 H 40.293 v -3 h -15 v 3 h -15 z"
       id="side0_outsideCutPath"
       stroke="#FF0000"
       stroke-width="0.1"
       style="stroke:#ff0000;stroke-width:0.1"
       vector-effect="non-scaling-stroke" />
    <path
       d="m 73.783,113.6 v 17.5 h -5.196 v 15 h 5.196 v 15 2.5 H 93.88 v 3 h 15 v -3 h 15 10.294 v -17.5 h -5.196 v -15 h 5.196 v -15 -2.5 H 108.88 v -3 h -15 v 3 h -15 z"
       id="side2_outsideCutPath"
       stroke="#FF0000"
       stroke-width="0.1"
       style="stroke:#ff0000;stroke-width:0.1"
       vector-effect="non-scaling-stroke" />
    <path
       d="m 142.37,113.6 v 17.5 h -5.196 v 15 h 5.196 v 15 2.5 h 20.097 v 3 h 15 v -3 h 15 10.294 v -17.5 h -5.196 v -15 h 5.196 v -15 -2.5 h -25.294 v -3 h -15 v 3 h -15 z"
       id="side4_outsideCutPath"
       stroke="#FF0000"
       stroke-width="0.1"
       style="stroke:#ff0000;stroke-width:0.1"
       vector-effect="non-scaling-stroke" />
    <path
       d="m 93.184,0 11.781,20.405 -2.598,1.5 7.5,12.99 2.598,-1.5 7.5,12.991 4.281,7.414 -11.781,20.405 -2.598,-1.5 -7.5,12.99 2.598,1.5 -7.5,12.991 -4.281,7.414 H 69.623 v -3 h -15 v 3 h -15 -8.562 l -11.78,-20.405 2.598,-1.5 -7.5,-12.99 -2.598,1.5 L 4.281,61.214 0,53.8 11.781,33.395 l 2.598,1.5 7.5,-12.99 -2.598,-1.5 7.5,-12.991 L 31.061,0 h 23.562 v 3 h 15 V 0 h 15 z"
       id="top_outsideCutPath"
       stroke="#FF0000"
       stroke-width="0.1"
       style="stroke:#ff0000;stroke-width:0.1"
       vector-effect="non-scaling-stroke" />
    <path
       d="m 220.43,0 11.781,20.405 -2.598,1.5 7.5,12.99 2.598,-1.5 7.5,12.991 4.281,7.414 -11.781,20.405 -2.598,-1.5 -7.5,12.99 2.598,1.5 -7.5,12.991 -4.281,7.414 h -23.561 v -3 h -15 v 3 h -15 -8.562 l -11.78,-20.405 2.598,-1.5 -7.5,-12.99 -2.598,1.5 -7.5,-12.991 -4.281,-7.414 11.781,-20.405 2.598,1.5 7.5,-12.99 -2.598,-1.5 7.5,-12.991 4.28,-7.414 h 23.562 v 3 h 15 V 0 h 15 z"
       id="bottom_outsideCutPath"
       stroke="#FF0000"
       stroke-width="0.1"
       style="stroke:#ff0000;stroke-width:0.1"
       vector-effect="non-scaling-stroke" />
    <rect
       style="fill:none;stroke:#ff0000;stroke-width:0.125299"
       id="rect11"
       width="59.269066"
       height="69.758308"
       x="159.7068"
       y="19.242458" />
    <text
       xml:space="preserve"
       style="font-weight:bold;font-size:6.35px;font-family:sans-serif;-inkscape-font-specification:'sans-serif, Bold';fill:#000000;fill-opacity:1;stroke:none;stroke-width:0.1"
       x="-55.577126"
       y="22.559036"
       id="text12"
       transform="rotate(-90)"><tspan
         sodipodi:role="line"
         id="tspan12"
         style="fill:#000000;fill-opacity:1;stroke:none;stroke-width:0.1"
         x="-55.577126"
         y="22.559036">T</tspan></text>
    <text
       xml:space="preserve"
       style="font-weight:bold;font-size:6.35px;font-family:sans-serif;-inkscape-font-specification:'sans-serif, Bold';fill:#000000;fill-opacity:1;stroke:none;stroke-width:0.1"
       x="-94.458267"
       y="88.69696"
       id="text13"
       transform="rotate(-90)"><tspan
         sodipodi:role="line"
         id="tspan13"
         style="fill:#000000;fill-opacity:1;stroke:none;stroke-width:0.1"
         x="-94.458267"
         y="88.69696">T</tspan></text>
    <text
       xml:space="preserve"
       style="font-weight:bold;font-size:6.35px;font-family:sans-serif;-inkscape-font-specification:'sans-serif, Bold';fill:#000000;fill-opacity:1;stroke:none;stroke-width:0.1"
       x="-17.077124"
       y="88.614021"
       id="text14"
       transform="rotate(-90)"><tspan
         sodipodi:role="line"
         id="tspan14"
         style="fill:#000000;fill-opacity:1;stroke:none;stroke-width:0.1"
         x="-17.077124"
         y="88.614021">T</tspan></text>
    <text
       xml:space="preserve"
       style="font-weight:bold;font-size:6.35px;font-family:sans-serif;-inkscape-font-specification:'sans-serif, Bold';fill:#000000;fill-opacity:1;stroke:none;stroke-width:0.1"
       x="-55.583324"
       y="104.75961"
       id="text15"
       transform="rotate(-90)"><tspan
         sodipodi:role="line"
         id="tspan15"
         style="stroke-width:0.1"
         x="-55.583324"
         y="104.75961">t</tspan></text>
    <text
       xml:space="preserve"
       style="font-weight:bold;font-size:6.35px;font-family:sans-serif;-inkscape-font-specification:'sans-serif, Bold';fill:#000000;fill-opacity:1;stroke:none;stroke-width:0.1"
       x="-16.083324"
       y="39.830883"
       id="text16"
       transform="rotate(-90)"><tspan
         sodipodi:role="line"
         id="tspan16"
         style="stroke-width:0.1"
         x="-16.083324"
         y="39.830883">t</tspan></text>
    <text
       xml:space="preserve"
       style="font-weight:bold;font-size:6.35px;font-family:sans-serif;-inkscape-font-specification:'sans-serif, Bold';fill:#000000;fill-opacity:1;stroke:none;stroke-width:0.1"
       x="-94.227585"
       y="39.616199"
       id="text17"
       transform="rotate(-90)"><tspan
         sodipodi:role="line"
         id="tspan17"
         style="stroke-width:0.1"
         x="-94.227585"
         y="39.616199">t</tspan></text>
    <text
       xml:space="preserve"
       style="font-weight:bold;font-size:6.35px;font-family:sans-serif;-inkscape-font-specification:'sans-serif, Bold';fill:#000000;fill-opacity:1;stroke:none;stroke-width:0.1"
       x="-33.759815"
       y="35.846386"
       id="text18"
       transform="rotate(-90)"><tspan
         sodipodi:role="line"
         id="tspan18"
         style="stroke-width:0.1"
         x="-33.759815"
         y="35.846386">C</tspan></text>
    <text
       xml:space="preserve"
       style="font-weight:bold;font-size:6.35px;font-family:sans-serif;-inkscape-font-specification:'sans-serif, Bold';fill:#000000;fill-opacity:1;stroke:none;stroke-width:0.1"
       x="-77.769363"
       y="35.60006"
       id="text19"
       transform="rotate(-90)"><tspan
         sodipodi:role="line"
         id="tspan19"
         style="stroke-width:0.1"
         x="-77.769363"
         y="35.60006">C</tspan></text>
    <text
       xml:space="preserve"
       style="font-weight:bold;font-size:6.35px;font-family:sans-serif;-inkscape-font-specification:'sans-serif, Bold';fill:#000000;fill-opacity:1;stroke:none;stroke-width:0.1"
       x="-33.759815"
       y="92.969849"
       id="text20"
       transform="rotate(-90)"><tspan
         sodipodi:role="line"
         id="tspan20"
         style="stroke-width:0.1"
         x="-33.759815"
         y="92.969849">C</tspan></text>
    <text
       xml:space="preserve"
       style="font-weight:bold;font-size:6.35px;font-family:sans-serif;-inkscape-font-specification:'sans-serif, Bold';fill:#000000;fill-opacity:1;stroke:none;stroke-width:0.1"
       x="-77.769363"
       y="92.519066"
       id="text21"
       transform="rotate(-90)"><tspan
         sodipodi:role="line"
         id="tspan21"
         style="stroke-width:0.1"
         x="-77.769363"
         y="92.519066">C</tspan></text>
    <text
       xml:space="preserve"
       style="font-weight:bold;font-size:6.35px;font-family:sans-serif;-inkscape-font-specification:'sans-serif, Bold';fill:#000000;fill-opacity:1;stroke:none;stroke-width:0.1"
       x="-94.426102"
       y="64.796303"
       id="text22"
       transform="rotate(-90)"><tspan
         sodipodi:role="line"
         id="tspan22"
         style="stroke-width:0.1"
         x="-94.426102"
         y="64.796303">C</tspan></text>
    <text
       xml:space="preserve"
       style="font-weight:bold;font-size:6.35px;font-family:sans-serif;-inkscape-font-specification:'sans-serif, Bold';fill:#000000;fill-opacity:1;stroke:none;stroke-width:0.1"
       x="-17.26936"
       y="64.796303"
       id="text23"
       transform="rotate(-90)"><tspan
         sodipodi:role="line"
         id="tspan23"
         style="stroke-width:0.1"
         x="-17.26936"
         y="64.796303">C</tspan></text>
    <text
       xml:space="preserve"
       style="font-weight:bold;font-size:7.02301px;font-family:sans-serif;-inkscape-font-specification:'sans-serif, Bold';fill:#000000;fill-opacity:1;stroke:none;stroke-width:0.110598"
       x="-102.88071"
       y="42.808807"
       id="text24"
       transform="matrix(0,-0.79035552,1.2652534,0,0,0)"><tspan
         sodipodi:role="line"
         id="tspan24"
         style="stroke-width:0.110598"
         x="-102.88071"
         y="42.808807">The </tspan><tspan
         sodipodi:role="line"
         style="stroke-width:0.110598"
         x="-102.88071"
         y="51.58757"
         id="tspan29">Heavy-Hex</tspan><tspan
         sodipodi:role="line"
         style="stroke-width:0.110598"
         x="-102.88071"
         y="60.366333"
         id="tspan30">Box </tspan><tspan
         sodipodi:role="line"
         style="stroke-width:0.110598"
         x="-102.88071"
         y="69.145096"
         id="tspan25" /></text>
    <g
       id="svgGroup-4"
       stroke-linecap="round"
       fill-rule="evenodd"
       font-size="12px"
       stroke="#000"
       stroke-width="0.25mm"
       fill="none"
       style="fill:none;stroke:#000000;stroke-width:0.25mm"
       transform="translate(-74.130531,294.48125)">
      <path
         d="m 201.63109,53.392758 v 12.813 h 3 v 24.375 h -3 v 12.812002 h 20.938 v -3 h 24.375 v 3 h 24.375 v -3 h 24.375 v 3 h 20.937 V 90.580758 h -3 v -24.375 h 3 v -12.813 z"
         id="front_outsideCutPath"
         stroke="#FF0000"
         stroke-width="0.1"
         style="stroke:#ff0000;stroke-width:0.1"
         vector-effect="non-scaling-stroke" />
      <path
         d="M 258.47163,1.5188551 V 14.331855 h -3 v 24.375 h 3 v 12.812 h 14.813 v -3 h 24.375 v 3 h 14.812 v -12.812 h 3 v -24.375 h -3 V 1.5188551 Z"
         id="left_outsideCutPath"
         stroke="#FF0000"
         stroke-width="0.1"
         style="stroke:#ff0000;stroke-width:0.1"
         vector-effect="non-scaling-stroke" />
      <path
         d="M 130.59242,0.44125968 V 13.25426 h 3 v 24.375 h -3 v 12.812 h 20.938 v -3 h 24.375 v 3 h 24.375 v -3 h 24.375 v 3 h 20.937 v -12.812 h -3 v -24.375 h 3 V 0.44125968 Z"
         id="back_outsideCutPath"
         stroke="#FF0000"
         stroke-width="0.1"
         style="stroke:#ff0000;stroke-width:0.1"
         vector-effect="non-scaling-stroke" />
      <path
         d="m 142.49762,-60.532775 v 12.813 h -3 v 24.375 h 3 v 12.812 h 14.813 v -3 h 24.375 v 3 h 14.812 v -12.812 h 3 v -24.375 h -3 v -12.813 z"
         id="right_outsideCutPath"
         stroke="#FF0000"
         stroke-width="0.1"
         style="stroke:#ff0000;stroke-width:0.1"
         vector-effect="non-scaling-stroke" />
      <path
         d="m 208.89198,-60.356651 v 14.813 h -3 v 24.375 h 3 v 14.812 h 17.938 v 3 h 24.375 v -3 h 24.375 v 3 h 24.375 v -3 h 17.937 v -14.812 h 3 v -24.375 h -3 v -14.813 h -17.937 v -3 h -24.375 v 3 h -24.375 v -3 h -24.375 v 3 z"
         id="bottom_outsideCutPath-5"
         stroke="#FF0000"
         stroke-width="0.1"
         style="stroke:#ff0000;stroke-width:0.1"
         vector-effect="non-scaling-stroke" />
      <rect
         style="fill:none;fill-opacity:1;stroke:none;stroke-width:0.1"
         id="rect25"
         width="61.26997"
         height="23.918224"
         x="155.69279"
         y="6.5762391" />
      <rect
         style="fill:none;fill-opacity:1;stroke:none;stroke-width:0.1"
         id="rect26"
         width="40.95586"
         height="15.071757"
         x="162.90103"
         y="6.5762391" />
      <rect
         style="fill:none;fill-opacity:1;stroke:none;stroke-width:0.1"
         id="rect27"
         width="52.567291"
         height="33.886356"
         x="10.794482"
         y="-105.98409" />
      <rect
         style="fill:none;fill-opacity:1;stroke:#ff0000;stroke-width:0.0996212;stroke-opacity:1"
         id="rect28"
         width="97.440826"
         height="37.362255"
         x="139.4516"
         y="0.26909214" />
    </g>
  </g>
  <ellipse
     style="fill:none;stroke:#ff0000;stroke-width:0.077905"
     id="path1"
     cx="109.57404"
     cy="53.5"
     rx="2.4610476"
     ry="2.4610474" />
  <ellipse
     style="fill:none;stroke:#ff0000;stroke-width:0.077905"
     id="ellipse1"
     cx="14.5"
     cy="53.5"
     rx="2.4610476"
     ry="2.4610474" />
  <ellipse
     style="fill:none;stroke:#ff0000;stroke-width:0.077905"
     id="ellipse2"
     cx="27.5"
     cy="31.5"
     rx="2.4610476"
     ry="2.4610474" />
  <ellipse
     style="fill:none;stroke:#ff0000;stroke-width:0.077905"
     id="ellipse3"
     cx="86.5"
     cy="9.5"
     rx="2.4610476"
     ry="2.4610474" />
  <ellipse
     style="fill:none;stroke:#ff0000;stroke-width:0.077905"
     id="ellipse4"
     cx="62.5"
     cy="9.5"
     rx="2.4610476"
     ry="2.4610474" />
  <ellipse
     style="fill:none;stroke:#ff0000;stroke-width:0.077905"
     id="ellipse5"
     cx="37.5"
     cy="9.5"
     rx="2.4610476"
     ry="2.4610474" />
  <ellipse
     style="fill:none;stroke:#ff0000;stroke-width:0.077905"
     id="ellipse6"
     cx="96.5"
     cy="31.5"
     rx="2.4610476"
     ry="2.4610474" />
  <ellipse
     style="fill:none;stroke:#ff0000;stroke-width:0.077905"
     id="ellipse7"
     cx="96.5"
     cy="75.5"
     rx="2.4610476"
     ry="2.4610474" />
  <ellipse
     style="fill:none;stroke:#ff0000;stroke-width:0.077905"
     id="ellipse8"
     cx="86.5"
     cy="97.5"
     rx="2.4610476"
     ry="2.4610474" />
  <ellipse
     style="fill:none;stroke:#ff0000;stroke-width:0.077905"
     id="ellipse9"
     cx="62.5"
     cy="97.5"
     rx="2.4610476"
     ry="2.4610474" />
  <ellipse
     style="fill:none;stroke:#ff0000;stroke-width:0.077905"
     id="ellipse10"
     cx="37.5"
     cy="97.5"
     rx="2.4610476"
     ry="2.4610474" />
  <ellipse
     style="fill:none;stroke:#ff0000;stroke-width:0.077905"
     id="ellipse11"
     cx="27.5"
     cy="75.5"
     rx="2.4610476"
     ry="2.4610474" />
</svg>
